<svg width="57" height="34" viewBox="0 0 57 34" fill="none" xmlns="http://www.w3.org/2000/svg">
<path d="M50.0342 15.795C49.5725 20.0563 37.2937 29.3908 41.2712 30.5799C45.2486 31.769 53.6917 22.5397 55.0029 18.3215C56.3141 14.1034 54.2873 7.87966 53.5575 7.74753C52.8277 7.61539 52.419 10.3699 51.6817 10.4449C50.9443 10.5199 50.4959 11.5337 50.0342 15.795Z" fill="#FAF7F7"/>
<path d="M44.839 13.2294C41.7577 16.0932 41.5507 31.868 38.3065 29.2043C35.0623 26.5406 37.4139 14.0615 39.968 10.5064C42.5221 6.95134 48.5908 5.04666 49.1185 5.58538C49.6461 6.1241 47.7184 8.06818 48.0876 8.73352C48.4568 9.39887 47.9203 10.3657 44.839 13.2294Z" fill="#FAF7F7"/>
<path d="M9.50401 15.0287C10.1607 20.4581 27.6256 32.3515 21.9682 33.8665C16.3108 35.3816 4.30167 23.6223 2.43667 18.2478C0.571667 12.8733 3.45455 4.94351 4.49262 4.77516C5.53069 4.6068 6.11196 8.11639 7.16072 8.21196C8.20948 8.30753 8.84732 9.5992 9.50401 15.0287Z" fill="#FAF7F7"/>
<path d="M16.8935 11.7599C21.2762 15.4086 21.5706 35.5078 26.1851 32.1139C30.7995 28.72 27.4547 12.82 23.8218 8.29038C20.189 3.76077 11.557 1.33395 10.8065 2.02036C10.0561 2.70676 12.798 5.18376 12.2729 6.0315C11.7477 6.87923 12.5107 8.1111 16.8935 11.7599Z" fill="#FAF7F7"/>
</svg>
